<?xml version="1.0" encoding="utf-8"?>
<!-- Generator: Adobe Illustrator 16.0.0, SVG Export Plug-In . SVG Version: 6.00 Build 0)  -->
<!DOCTYPE svg PUBLIC "-//W3C//DTD SVG 1.1//EN" "http://www.w3.org/Graphics/SVG/1.1/DTD/svg11.dtd">
<svg version="1.1" id="图层_1" xmlns="http://www.w3.org/2000/svg" xmlns:xlink="http://www.w3.org/1999/xlink" x="0px" y="0px"
	 width="40px" height="40px" viewBox="-2.5 0 40 40" enable-background="new -2.5 0 40 40" xml:space="preserve">
<title>Group 9</title>
<desc>Created with Sketch.</desc>
<g id="Page-1">
	<g id="切图用-copy" transform="translate(-195.000000, -279.000000)">
		<g id="Group-9" transform="translate(195.000000, 279.000000)">
			<g id="boy_x26_girl2-copy-2">
				<path id="Shape" fill="#F25D5D" d="M17.391,0.343c-9.475,0-17.155,7.681-17.155,17.156c0,7.634,4.992,14.087,11.887,16.312
					c0.812,0.15,1.53,0.561,2.074,1.139l3.195,4.321l3.176-4.323c0.502-0.539,1.18-0.914,1.917-1.092
					c6.984-2.172,12.062-8.659,12.062-16.357C34.547,8.024,26.867,0.343,17.391,0.343z"/>
			</g>
			<g id="Group-2-Copy" transform="translate(2.608696, 2.608696)">
				<g id="Group-2-Copy-13">
					<g id="Group-3-Copy-6">
						<circle id="Oval-3" fill="#FFFFFF" cx="14.95" cy="14.951" r="14.279"/>
					</g>
				</g>
				<g id="粉丝圈店铺" transform="translate(8.231225, 8.231225)">
					<path id="Shape_1_" fill="#F25D5D" d="M14.174,1.643c0-0.863-0.7-1.563-1.562-1.563H1.678c-0.862,0-1.562,0.701-1.562,1.563
						v2.346c0,1.296,1.048,2.345,2.343,2.345c1.019,0,1.877-0.655,2.199-1.563h0.288c0.322,0.91,1.181,1.563,2.199,1.563
						c1.018,0,1.876-0.655,2.199-1.563h0.287c0.324,0.909,1.182,1.563,2.199,1.563c1.295,0,2.344-1.049,2.344-2.345V1.643
						L14.174,1.643z M14.174,9.462c0-0.863-0.7-1.564-1.562-1.564c0,0.863-0.699,3.127-1.562,3.127H3.24
						c-0.862,0-1.562-2.264-1.562-3.127c-0.862,0-1.562,0.701-1.562,1.564v3.127c0,0.863,0.7,1.563,1.562,1.563h10.933
						c0.862,0,1.562-0.7,1.562-1.563V9.462L14.174,9.462L14.174,9.462z"/>
				</g>
			</g>
		</g>
	</g>
</g>
</svg>
