<?xml version="1.0" encoding="UTF-8"?>
<svg width="60px" height="60px" viewBox="0 0 60 60" version="1.1" xmlns="http://www.w3.org/2000/svg" xmlns:xlink="http://www.w3.org/1999/xlink">
    <!-- Generator: Sketch 44.1 (41455) - http://www.bohemiancoding.com/sketch -->
    <title>Group 23 Copy</title>
    <desc>Created with Sketch.</desc>
    <defs>
        <ellipse id="path-1" cx="30" cy="30" rx="29.7543536" ry="29.7315064"></ellipse>
    </defs>
    <g id="Page-1" stroke="none" stroke-width="1" fill="none" fill-rule="evenodd">
        <g id="Artboard-3" transform="translate(-161.000000, -405.000000)">
            <g id="Group-23-Copy" transform="translate(161.000000, 405.000000)">
                <g id="Oval-17">
                    <use fill="#FFFFFF" fill-rule="evenodd" xlink:href="#path-1"></use>
                    <ellipse stroke="#E6EBEF" stroke-width="1" cx="30" cy="30" rx="29.2543536" ry="29.2315064"></ellipse>
                </g>
                <path d="M0.697172665,24.8114452 C0.400417141,26.4963252 0.245646392,28.2301021 0.245646392,30 C0.245646392,46.4202576 13.5671243,59.7315064 30,59.7315064 C46.4328757,59.7315064 59.7543536,46.4202576 59.7543536,30 C59.7543536,28.1078936 59.5774716,26.2570684 59.2393293,24.4631342 L0.697172665,24.8114452 Z" id="Combined-Shape" fill="#FFFFFF"></path>
                <circle id="Oval-17" stroke="#333333" stroke-width="1.5" fill="#FFFFFF" cx="30" cy="30" r="25.5555556"></circle>
                <g id="delete" transform="translate(14.444444, 18.888889)" fill-rule="nonzero" fill="#333333">
                    <path d="M10.0224982,0.808382429 C9.02300216,0.349855297 7.96465083,0.093369509 6.84708423,0.0391059432 C5.72955364,-0.0151937984 4.5849532,0.0571937984 3.41339093,0.256341085 C2.24175666,0.455416021 1.11112311,0.627395349 0.0216702664,0.772206718 L1.74708423,23.3152455 L8.16151908,18.8524651 L5.76562275,12.8632868 C6.67080634,12.4449147 7.68718503,11.9603049 8.81479482,11.409168 C9.94233261,10.8581757 10.9226782,10.2005013 11.7558675,9.43621705 C12.5889849,8.67200517 13.1437725,7.78410853 13.4201944,6.77245478 C13.6965443,5.76087339 13.4361411,4.58335401 12.6391289,3.23989664 C11.8940965,2.07746253 11.0218143,1.26694574 10.0224982,0.808382429 Z M8.43326134,6.49788114 C7.94859611,7.02886822 7.10334773,7.43714729 5.89773218,7.72271835 L5.42912167,3.66818088 C6.44650828,3.47514729 7.26961843,3.52340568 7.89852412,3.81302842 C8.52732181,4.10257881 8.89488841,4.48976744 9.00104392,4.97441344 C9.10716343,5.45924031 8.91789057,5.96696641 8.43326134,6.49788114 Z M33.3258819,1.74500775 L25.2024118,0.229136951 L20.0533477,6.35914729 L20.2456084,0.229136951 L15.2947804,0.651452196 L15.9256299,19.2767339 L20.7437005,20.8358708 L20.9846292,13.5629974 L26.2538517,19.4879638 L31.3489921,17.3399948 L23.8275738,8.93511111 L33.3258819,1.74500775 Z" id="Shape"></path>
                </g>
            </g>
        </g>
    </g>
</svg>