<?xml version="1.0" encoding="utf-8"?>
<!-- Generator: Adobe Illustrator 16.0.0, SVG Export Plug-In . SVG Version: 6.00 Build 0)  -->
<!DOCTYPE svg PUBLIC "-//W3C//DTD SVG 1.1//EN" "http://www.w3.org/Graphics/SVG/1.1/DTD/svg11.dtd">
<svg version="1.1" id="图层_1" xmlns="http://www.w3.org/2000/svg" xmlns:xlink="http://www.w3.org/1999/xlink" x="0px" y="0px"
	 width="65px" height="12px" viewBox="0 -1.5 65 12" enable-background="new 0 -1.5 65 12" xml:space="preserve">
<title>star</title>
<desc>Created with Sketch.</desc>
<g id="Page-1">
	<g id="切图用" transform="translate(-24.000000, -105.000000)">
		<g id="star" transform="translate(24.000000, 105.000000)">
			<g id="五角星-实心">
				<path id="Shape" fill="#999999" d="M7.088,5.586c0.105,0.487,0.197,0.928,0.277,1.322c0.037,0.166,0.071,0.333,0.102,0.499
					s0.06,0.317,0.087,0.453c0.028,0.136,0.051,0.251,0.07,0.347s0.031,0.156,0.037,0.18C7.68,8.51,7.652,8.592,7.578,8.633
					c-0.074,0.039-0.157,0.061-0.25,0.061c-0.031,0-0.076-0.012-0.134-0.033S7.091,8.622,7.061,8.609L4.647,7.204
					c-0.438,0.259-0.835,0.49-1.193,0.693C3.3,7.984,3.148,8.07,2.997,8.156c-0.151,0.086-0.288,0.166-0.411,0.24
					c-0.123,0.074-0.23,0.136-0.319,0.186c-0.089,0.049-0.149,0.08-0.181,0.092C2.024,8.705,1.961,8.716,1.896,8.707
					c-0.065-0.01-0.124-0.033-0.176-0.069C1.668,8.601,1.629,8.556,1.605,8.504C1.58,8.451,1.574,8.396,1.586,8.342
					c0.006-0.025,0.021-0.085,0.046-0.181c0.024-0.095,0.052-0.21,0.083-0.342C1.747,7.687,1.782,7.541,1.822,7.38
					c0.04-0.16,0.082-0.323,0.125-0.49c0.092-0.382,0.197-0.813,0.314-1.294c-0.364-0.314-0.69-0.595-0.98-0.841
					C1.158,4.649,1.036,4.546,0.916,4.444C0.796,4.343,0.688,4.25,0.592,4.167S0.418,4.017,0.357,3.964S0.261,3.882,0.255,3.876
					C0.182,3.809,0.118,3.733,0.065,3.65c-0.052-0.083-0.073-0.168-0.06-0.254c0.012-0.086,0.047-0.154,0.102-0.203
					C0.163,3.143,0.225,3.112,0.292,3.1l2.856-0.259l1.063-2.477C4.249,0.265,4.301,0.18,4.369,0.109
					c0.068-0.071,0.16-0.106,0.277-0.106c0.062,0,0.116,0.014,0.162,0.042c0.046,0.028,0.085,0.06,0.116,0.097
					c0.031,0.037,0.057,0.074,0.078,0.111C5.024,0.29,5.041,0.321,5.054,0.345l1.035,2.477l2.857,0.269
					c0.123,0.031,0.209,0.068,0.259,0.111c0.05,0.043,0.074,0.111,0.074,0.203c0,0.086-0.026,0.162-0.078,0.227
					C9.148,3.696,9.082,3.775,9.001,3.867L7.088,5.586z"/>
			</g>
			<g id="五角星-实心-copy" transform="translate(13.928571, 0.000000)">
				<path id="Shape_1_" fill="#999999" d="M7.088,5.586c0.105,0.487,0.197,0.928,0.277,1.322c0.038,0.166,0.071,0.333,0.102,0.499
					S7.527,7.725,7.554,7.86c0.028,0.136,0.051,0.251,0.07,0.347s0.031,0.156,0.037,0.18C7.68,8.51,7.652,8.592,7.578,8.633
					c-0.074,0.039-0.157,0.061-0.25,0.061c-0.031,0-0.076-0.012-0.134-0.033S7.091,8.622,7.06,8.609L4.647,7.204
					C4.21,7.463,3.812,7.694,3.455,7.897C3.3,7.984,3.148,8.07,2.997,8.156c-0.151,0.086-0.288,0.166-0.412,0.24
					C2.462,8.471,2.356,8.532,2.266,8.582c-0.089,0.049-0.149,0.08-0.181,0.092C2.024,8.705,1.961,8.716,1.897,8.707
					C1.831,8.697,1.773,8.674,1.72,8.638C1.668,8.601,1.63,8.556,1.605,8.504C1.58,8.451,1.574,8.396,1.587,8.342
					c0.006-0.025,0.021-0.085,0.046-0.181c0.024-0.095,0.052-0.21,0.083-0.342C1.747,7.687,1.782,7.541,1.822,7.38
					c0.04-0.16,0.082-0.323,0.125-0.49c0.092-0.382,0.197-0.813,0.314-1.294c-0.364-0.314-0.69-0.595-0.98-0.841
					C1.158,4.649,1.036,4.546,0.916,4.444C0.796,4.343,0.688,4.25,0.592,4.167S0.418,4.017,0.357,3.964S0.261,3.882,0.255,3.876
					C0.181,3.809,0.118,3.733,0.066,3.65c-0.052-0.083-0.073-0.168-0.06-0.254c0.012-0.086,0.046-0.154,0.102-0.203
					C0.163,3.143,0.224,3.112,0.292,3.1l2.856-0.259l1.063-2.477C4.249,0.265,4.301,0.18,4.369,0.109
					c0.068-0.071,0.16-0.106,0.277-0.106c0.062,0,0.116,0.014,0.162,0.042c0.046,0.028,0.084,0.06,0.115,0.097
					c0.031,0.037,0.057,0.074,0.079,0.111C5.024,0.29,5.041,0.321,5.053,0.345l1.036,2.477l2.857,0.269
					c0.123,0.031,0.209,0.068,0.259,0.111s0.074,0.111,0.074,0.203c0,0.086-0.026,0.162-0.078,0.227
					C9.148,3.696,9.082,3.775,9.002,3.867L7.088,5.586z"/>
			</g>
			<g id="五角星-实心-copy-2" transform="translate(27.857143, 0.000000)">
				<path id="Shape_2_" fill="#999999" d="M7.088,5.586c0.104,0.487,0.197,0.928,0.277,1.322c0.037,0.166,0.07,0.333,0.102,0.499
					c0.03,0.166,0.061,0.317,0.088,0.453s0.051,0.251,0.068,0.347c0.02,0.096,0.031,0.156,0.037,0.18
					C7.68,8.51,7.652,8.592,7.578,8.633C7.504,8.672,7.42,8.693,7.328,8.693c-0.031,0-0.075-0.012-0.134-0.033
					S7.091,8.622,7.061,8.609L4.647,7.204C4.21,7.463,3.812,7.694,3.455,7.897C3.3,7.984,3.148,8.07,2.997,8.156
					c-0.151,0.086-0.288,0.166-0.412,0.24c-0.123,0.074-0.23,0.136-0.319,0.186c-0.089,0.049-0.149,0.08-0.18,0.092
					C2.024,8.705,1.961,8.716,1.896,8.707C1.831,8.697,1.773,8.674,1.72,8.638C1.668,8.601,1.629,8.556,1.605,8.504
					C1.58,8.451,1.574,8.396,1.587,8.342c0.006-0.025,0.021-0.085,0.046-0.181c0.024-0.095,0.052-0.21,0.083-0.342
					C1.747,7.687,1.782,7.541,1.822,7.38c0.04-0.16,0.082-0.323,0.125-0.49c0.092-0.382,0.197-0.813,0.314-1.294
					c-0.364-0.314-0.691-0.595-0.98-0.841C1.158,4.649,1.036,4.546,0.916,4.444C0.796,4.343,0.688,4.25,0.593,4.167
					C0.496,4.084,0.418,4.017,0.357,3.964S0.261,3.882,0.255,3.876C0.181,3.809,0.118,3.733,0.065,3.65
					c-0.052-0.083-0.072-0.168-0.06-0.254c0.012-0.086,0.046-0.154,0.102-0.203C0.163,3.143,0.224,3.112,0.292,3.1l2.856-0.259
					l1.063-2.477C4.249,0.265,4.302,0.18,4.369,0.109c0.068-0.071,0.16-0.106,0.277-0.106c0.062,0,0.115,0.014,0.162,0.042
					c0.046,0.028,0.084,0.06,0.115,0.097c0.031,0.037,0.057,0.074,0.078,0.111C5.024,0.29,5.041,0.321,5.053,0.345l1.035,2.477
					l2.857,0.269c0.123,0.031,0.21,0.068,0.26,0.111c0.049,0.043,0.073,0.111,0.073,0.203c0,0.086-0.026,0.162-0.079,0.227
					C9.148,3.696,9.082,3.775,9.002,3.867L7.088,5.586z"/>
			</g>
			<g id="五角星-实心-copy-3" transform="translate(41.785714, 0.000000)">
				<path id="Shape_3_" fill="#999999" d="M7.087,5.586c0.105,0.487,0.197,0.928,0.277,1.322c0.037,0.166,0.071,0.333,0.102,0.499
					C7.497,7.573,7.527,7.725,7.554,7.86s0.051,0.251,0.07,0.347c0.018,0.096,0.03,0.156,0.037,0.18
					c0.018,0.123-0.01,0.205-0.084,0.246C7.504,8.672,7.421,8.693,7.329,8.693c-0.03,0-0.075-0.012-0.134-0.033
					S7.091,8.622,7.06,8.609L4.648,7.204C4.21,7.463,3.812,7.694,3.455,7.897C3.3,7.984,3.148,8.07,2.997,8.156
					s-0.288,0.166-0.411,0.24s-0.23,0.136-0.319,0.186c-0.089,0.049-0.149,0.08-0.181,0.092C2.024,8.705,1.96,8.716,1.896,8.707
					C1.831,8.697,1.773,8.674,1.72,8.638C1.668,8.601,1.629,8.556,1.605,8.504C1.58,8.451,1.574,8.396,1.586,8.342
					c0.007-0.025,0.021-0.085,0.046-0.181c0.025-0.095,0.053-0.21,0.084-0.342c0.03-0.133,0.066-0.278,0.105-0.439
					c0.041-0.16,0.082-0.323,0.125-0.49c0.092-0.382,0.197-0.813,0.314-1.294c-0.363-0.314-0.69-0.595-0.98-0.841
					C1.158,4.649,1.037,4.546,0.915,4.444C0.796,4.343,0.688,4.25,0.592,4.167S0.418,4.017,0.357,3.964S0.261,3.882,0.255,3.876
					C0.181,3.809,0.119,3.733,0.066,3.65C0.013,3.566-0.007,3.482,0.005,3.396s0.047-0.154,0.102-0.203
					C0.164,3.143,0.224,3.112,0.292,3.1l2.856-0.259l1.063-2.477C4.249,0.265,4.301,0.18,4.369,0.109
					C4.437,0.038,4.53,0.003,4.647,0.003c0.062,0,0.115,0.014,0.161,0.042c0.047,0.028,0.086,0.06,0.116,0.097
					c0.03,0.037,0.057,0.074,0.078,0.111C5.024,0.29,5.04,0.321,5.054,0.345l1.035,2.477l2.857,0.269
					c0.122,0.031,0.209,0.068,0.258,0.111c0.05,0.043,0.074,0.111,0.074,0.203c0,0.086-0.026,0.162-0.078,0.227
					C9.148,3.696,9.081,3.775,9.001,3.867L7.087,5.586z"/>
			</g>
			<g id="五角星-实心-copy-4" transform="translate(55.714286, 0.000000)">
				<path id="Shape_4_" fill="#999999" d="M7.087,5.586c0.105,0.487,0.198,0.928,0.278,1.322c0.037,0.166,0.07,0.333,0.102,0.499
					c0.03,0.166,0.06,0.317,0.087,0.453c0.028,0.136,0.052,0.251,0.069,0.347c0.02,0.096,0.031,0.156,0.037,0.18
					C7.68,8.51,7.652,8.592,7.579,8.633C7.504,8.672,7.42,8.693,7.329,8.693c-0.031,0-0.076-0.012-0.135-0.033
					S7.091,8.622,7.061,8.609L4.647,7.204C4.21,7.463,3.812,7.694,3.455,7.897C3.3,7.984,3.148,8.07,2.997,8.156
					c-0.15,0.086-0.287,0.166-0.411,0.24C2.462,8.471,2.356,8.532,2.266,8.582c-0.09,0.049-0.149,0.08-0.181,0.092
					C2.024,8.705,1.961,8.716,1.897,8.707c-0.065-0.01-0.124-0.033-0.176-0.069C1.669,8.601,1.629,8.556,1.605,8.504
					c-0.024-0.053-0.03-0.107-0.019-0.162c0.006-0.025,0.021-0.085,0.047-0.181c0.023-0.095,0.052-0.21,0.082-0.342
					C1.747,7.687,1.782,7.541,1.823,7.38c0.039-0.16,0.081-0.323,0.124-0.49C2.04,6.508,2.144,6.076,2.261,5.596
					c-0.364-0.314-0.69-0.595-0.979-0.841C1.159,4.649,1.036,4.546,0.917,4.444C0.795,4.343,0.688,4.25,0.592,4.167
					S0.419,4.017,0.356,3.964C0.295,3.912,0.26,3.882,0.254,3.876C0.181,3.809,0.118,3.733,0.065,3.65
					c-0.052-0.083-0.072-0.168-0.06-0.254s0.046-0.154,0.102-0.203S0.224,3.112,0.292,3.1l2.857-0.259l1.062-2.477
					C4.249,0.265,4.301,0.18,4.37,0.109c0.067-0.071,0.16-0.106,0.277-0.106c0.061,0,0.115,0.014,0.162,0.042
					c0.046,0.028,0.084,0.06,0.115,0.097c0.03,0.037,0.057,0.074,0.078,0.111C5.024,0.29,5.041,0.321,5.053,0.345l1.035,2.477
					l2.857,0.269c0.123,0.031,0.209,0.068,0.259,0.111s0.073,0.111,0.073,0.203c0,0.086-0.025,0.162-0.078,0.227
					C9.148,3.696,9.082,3.775,9.002,3.867L7.087,5.586z"/>
			</g>
		</g>
	</g>
</g>
</svg>
