<?xml version="1.0" encoding="utf-8"?>
<!-- Generator: Adobe Illustrator 16.0.0, SVG Export Plug-In . SVG Version: 6.00 Build 0)  -->
<!DOCTYPE svg PUBLIC "-//W3C//DTD SVG 1.1//EN" "http://www.w3.org/Graphics/SVG/1.1/DTD/svg11.dtd">
<svg version="1.1" id="图层_1" xmlns="http://www.w3.org/2000/svg" xmlns:xlink="http://www.w3.org/1999/xlink" x="0px" y="0px"
	 width="40px" height="40px" viewBox="-2.5 0 40 40" enable-background="new -2.5 0 40 40" xml:space="preserve">
<title>Group 8</title>
<desc>Created with Sketch.</desc>
<g id="Page-1">
	<g id="切图用-copy" transform="translate(-140.000000, -273.000000)">
		<g id="Group-8" transform="translate(140.000000, 273.000000)">
			<g id="boy_x26_girl2-copy-3">
				<path id="Shape" fill="#F25D5D" d="M17.391,0.343c-9.475,0-17.155,7.681-17.155,17.156c0,7.634,4.992,14.087,11.887,16.312
					c0.812,0.15,1.53,0.561,2.074,1.139l3.195,4.321l3.176-4.323c0.502-0.539,1.18-0.914,1.917-1.092
					c6.984-2.172,12.062-8.659,12.062-16.357C34.547,8.024,26.867,0.343,17.391,0.343z"/>
			</g>
			<g id="amp-mk2" transform="translate(2.608696, 2.608696)">
				<ellipse id="Oval" fill="#DD4E4E" cx="14.759" cy="15.788" rx="14.136" ry="14.148"/>
				<path id="path-4" fill="#FFFFFF" d="M14.829,26.091c-7.615,0-13.816-6.052-14.06-13.605C1.861,5.743,7.7,0.594,14.742,0.594
					c7.353,0,13.396,5.617,14.089,12.802C28.139,20.52,22.135,26.091,14.829,26.091z"/>
				<ellipse id="path-1" fill="#FFFFFF" cx="14.741" cy="14.774" rx="14.154" ry="14.181"/>
				<g id="约战-恢复的-2" transform="translate(0.347826, 0.521739)">
					<g id="Mask">
						<ellipse id="path-1_1_" fill="#EACF80" cx="14.393" cy="14.252" rx="14.154" ry="14.181"/>
					</g>
					<g id="Mask_1_">
						<ellipse id="path-1_2_" fill="#EACF80" cx="14.393" cy="14.912" rx="14.154" ry="14.18"/>
					</g>
					<g id="Combined-Shape">
						
							<linearGradient id="path-4_2_" gradientUnits="userSpaceOnUse" x1="-450.9863" y1="286.4174" x2="-450.9863" y2="285.4174" gradientTransform="matrix(28.0617 0 0 -26.0678 12669.9082 7466.3506)">
							<stop  offset="0" style="stop-color:#FFF5DF"/>
							<stop  offset="1" style="stop-color:#FFE7C1"/>
						</linearGradient>
						<path id="path-4_1_" fill="url(#path-4_2_)" d="M14.481,26.14c-7.615,0-13.816-6.622-14.06-14.177
							C1.513,5.221,7.352,0.072,14.394,0.072c7.353,0,13.396,5.617,14.089,12.802C27.792,19.998,21.788,26.14,14.481,26.14z"/>
					</g>
				</g>
				<g id="战" transform="translate(6.956522, 4.347826)">
					<path id="Shape_1_" fill="#F43434" d="M13.767,3.03c-1.427-0.239-1.643,1.375-1.859,1.794c-0.218,0.418-0.092,0.09-0.743-0.358
						c-0.65-0.451-2.539-0.03-2.972,0.359C7.759,5.213,8.131,5.572,8.566,5.902c0.433,0.33,2.506,0.179,2.972,0.358
						c0.464,0.179,0.03,2.124,0.743,2.154c0.711,0.031,0.805-1.975,0.743-2.871C12.96,4.645,13.767,3.03,13.767,3.03z M2.62,12.363
						c-1.797,2.094-2.229,6.223-1.858,6.821c0.37,0.599,0.805,0.029,1.113-0.718c0.31-0.747,1.487-4.965,1.859-5.384
						c0.371-0.419,0.65,0.629,1.484,1.076c0.837,0.449,2.974,0.718,2.974,0.718c-0.372-0.358-2.724-2.214-2.974-2.513
						C4.97,12.064,4.537,10.777,4.476,9.85C4.416,8.923,5.188,7.307,5.592,7.697c0.401,0.389,1.176,0.808,1.858,0.359
						c0.68-0.448,0.71-1.137,0.372-1.077C7.48,7.038,7.295,7.038,6.707,6.619C6.119,6.202,5.718,5.782,5.965,5.184
						c0.249-0.598,1.174-3.648,1.114-3.948C6.149,1.325,5.686,2.522,5.22,3.39C4.757,4.257,4.849,5.184,4.849,5.184
						S3.889,4.438,3.734,4.108C3.58,3.78,5.22,2.313,5.22,2.313S2.342,3.271,1.877,3.39C1.413,3.509,1.163,3.778,1.505,4.107
						c0.341,0.331,2.011,2.004,2.229,2.154c0.215,0.15,1.053,1.527,0,1.795C2.681,8.324,1.69,8.892,1.875,9.849
						C2.062,10.807,2.959,12.003,2.62,12.363z M8.191,12.003c0.496,0.359,2.756,2.544,2.974,2.872
						c0.216,0.329,0.246,0.121,0.743-0.717c0.496-0.839,0.865,0.029,1.857-0.718s1.486-3.59,1.486-3.59
						c-0.215,0.09-0.494,0.659-1.486,0.717c-0.99,0.06-3.748-2.333-4.088-2.512C9.338,7.876,8.409,8.384,8.191,8.774
						c-0.215,0.388-0.061,1.076,0,1.435c0.063,0.359,0.527,0.568,0,0.718C7.666,11.076,7.697,11.645,8.191,12.003z M11.536,10.926
						c0.589,0.449,0.96,0.957,1.857,0.718c0,0-0.836,1.105-1.486,1.076c-0.65-0.03-0.091-0.418-0.371-0.718
						c-0.279-0.298-1.054-1.196-1.115-1.435C10.361,10.33,10.948,10.478,11.536,10.926z M0.392,1.952
						C0.7,2.582,1.505,2.49,1.877,2.311c0.37-0.18,0.589-0.567,0.743-1.075c0.154-0.509,0.743-0.718,0.743-0.718
						c-0.62-0.209-0.496-0.389-1.487-0.359C0.884,0.189,0.079,1.324,0.392,1.952z"/>
				</g>
				<g id="Group" transform="translate(0.869565, 16.521739)">
					<path id="Oval-22" fill="#CE995F" d="M13.689,11.567c0-0.363,0.294-0.659,0.659-0.659c0.363,0,0.659,0.296,0.659,0.659
						s-0.296,0.66-0.659,0.66C13.983,12.227,13.689,11.93,13.689,11.567z M16.531,11.006c-0.062-0.293,0.124-0.58,0.417-0.643
						s0.58,0.126,0.643,0.417c0.062,0.294-0.124,0.581-0.417,0.644S16.591,11.299,16.531,11.006z M19.52,10.223
						c-0.121-0.283,0.014-0.613,0.299-0.734c0.283-0.12,0.613,0.014,0.733,0.299c0.121,0.283-0.011,0.614-0.298,0.734
						C19.969,10.643,19.64,10.51,19.52,10.223z M22.062,8.633c-0.168-0.236-0.108-0.565,0.127-0.731
						c0.239-0.167,0.567-0.108,0.733,0.128c0.168,0.238,0.109,0.566-0.129,0.732C22.555,8.93,22.228,8.872,22.062,8.633z
						 M24.649,5.868c-0.164-0.16-0.17-0.418-0.01-0.582c0.158-0.164,0.416-0.169,0.58-0.011c0.162,0.159,0.166,0.417,0.009,0.581
						C25.072,6.018,24.811,6.024,24.649,5.868z M26.816,2.563c-0.153-0.094-0.199-0.295-0.104-0.449
						c0.097-0.154,0.298-0.199,0.45-0.104c0.153,0.096,0.199,0.298,0.104,0.451C27.17,2.614,26.969,2.661,26.816,2.563z
						 M0.283,0.381c0.199-0.073,0.42,0.031,0.492,0.229c0.072,0.2-0.031,0.421-0.231,0.492c-0.198,0.072-0.417-0.03-0.491-0.229
						C-0.019,0.673,0.083,0.453,0.283,0.381z M1.293,3.373c0.213-0.133,0.493-0.067,0.626,0.145
						c0.133,0.213,0.068,0.493-0.145,0.627C1.561,4.278,1.281,4.213,1.149,4C1.015,3.788,1.08,3.506,1.293,3.373z M3.022,5.814
						C3.16,5.68,3.383,5.684,3.516,5.823c0.132,0.139,0.129,0.361-0.01,0.496c-0.137,0.133-0.36,0.129-0.494-0.01
						C2.879,6.169,2.883,5.949,3.022,5.814z M4.837,7.922c0.161-0.229,0.476-0.285,0.705-0.125c0.229,0.161,0.284,0.476,0.125,0.705
						C5.507,8.731,5.192,8.788,4.961,8.627C4.732,8.466,4.677,8.151,4.837,7.922z M7.48,9.544C7.6,9.262,7.925,9.129,8.208,9.25
						C8.49,9.37,8.621,9.696,8.502,9.977c-0.121,0.282-0.447,0.414-0.728,0.295C7.493,10.151,7.36,9.827,7.48,9.544z M10.627,11.213
						c0.055-0.262,0.311-0.428,0.573-0.371c0.262,0.055,0.428,0.311,0.372,0.572c-0.054,0.262-0.31,0.426-0.572,0.371
						C10.739,11.731,10.574,11.474,10.627,11.213z"/>
					<circle id="Oval-23" fill="#EBC498" cx="14.64" cy="11.323" r="1"/>
					<circle id="Oval-23_7_" fill="#EBC498" cx="17.29" cy="10.622" r="1"/>
					<circle id="Oval-23_8_" fill="#EBC498" cx="20.341" cy="9.747" r="1"/>
					<circle id="Oval-23_9_" fill="#EBC498" cx="22.662" cy="8.042" r="1"/>
					<circle id="Oval-23_10_" fill="#EBC498" cx="25.108" cy="5.418" r="1"/>
					<circle id="Oval-23_11_" fill="#EBC498" cx="27.184" cy="2.167" r="1"/>
					<circle id="Oval-23_1_" fill="#EBC498" cx="11.274" cy="11.227" r="1"/>
					<circle id="Oval-23_2_" fill="#EBC498" cx="8.295" cy="9.633" r="1"/>
					<circle id="Oval-23_3_" fill="#EBC498" cx="5.464" cy="8.109" r="1"/>
					<circle id="Oval-23_4_" fill="#EBC498" cx="3.436" cy="5.997" r="1"/>
					<circle id="Oval-23_5_" fill="#EBC498" cx="1.787" cy="3.62" r="1"/>
					<circle id="Oval-23_6_" fill="#EBC498" cx="0.606" cy="0.68" r="1"/>
				</g>
			</g>
		</g>
	</g>
</g>
</svg>
