<?xml version="1.0" encoding="utf-8"?>
<!-- Generator: Adobe Illustrator 16.0.0, SVG Export Plug-In . SVG Version: 6.00 Build 0)  -->
<!DOCTYPE svg PUBLIC "-//W3C//DTD SVG 1.1//EN" "http://www.w3.org/Graphics/SVG/1.1/DTD/svg11.dtd">
<svg version="1.1" id="图层_1" xmlns="http://www.w3.org/2000/svg" xmlns:xlink="http://www.w3.org/1999/xlink" x="0px" y="0px"
	 width="40px" height="40px" viewBox="-8 0 40 40" enable-background="new -8 0 40 40" xml:space="preserve">
<title>Group 4</title>
<desc>Created with Sketch.</desc>
<g id="Page-1">
	<g id="切图用-copy" transform="translate(-223.000000, -439.000000)">
		<g id="Group-4" transform="translate(223.000000, 439.000000)">
			<g id="locationX40">
				<g id="Group">
					<path id="Shape" fill="#424547" d="M12.653,0c0.613,0.112,1.233,0.197,1.839,0.342c4.623,1.107,8.13,4.956,8.815,9.656
						c0.901,6.185-3.146,11.975-9.242,13.213c-0.424,0.086-0.854,0.136-1.337,0.211c0,0.131-0.001,0.27,0,0.409
						c0.047,9.019,0.094,4.773,0.141,13.792c0,0.18,0.008,0.366-0.035,0.537c-0.143,0.553-0.658,0.892-1.204,0.812
						c-0.543-0.079-0.928-0.535-0.931-1.116c-0.024-4.389-0.048-8.777-0.071-13.166c-0.024-4.75-0.048,3.763-0.073-0.987
						c0-0.095-0.008-0.189-0.008-0.189c-1.105-0.316-2.211-0.51-3.215-0.94c-4.283-1.833-6.786-5.089-7.269-9.729
						C-0.561,6.847,3.477,1.447,9.353,0.238C9.822,0.141,10.298,0.079,10.771,0C11.399,0,12.026,0,12.653,0z"/>
					
						<ellipse id="Oval-14" opacity="0.5609" fill="#434547" enable-background="new    " cx="11.943" cy="38.476" rx="3.785" ry="1.524"/>
				</g>
			</g>
			<ellipse id="Oval-4" fill="#FFFFFF" cx="11.407" cy="11.487" rx="3.259" ry="3.282"/>
		</g>
	</g>
</g>
</svg>
