<?xml version="1.0" encoding="utf-8"?>
<!-- Generator: Adobe Illustrator 16.0.0, SVG Export Plug-In . SVG Version: 6.00 Build 0)  -->
<!DOCTYPE svg PUBLIC "-//W3C//DTD SVG 1.1//EN" "http://www.w3.org/Graphics/SVG/1.1/DTD/svg11.dtd">
<svg version="1.1" id="图层_1" xmlns="http://www.w3.org/2000/svg" xmlns:xlink="http://www.w3.org/1999/xlink" x="0px" y="0px"
	 width="52px" height="52px" viewBox="-5.5 0 52 52" enable-background="new -5.5 0 52 52" xml:space="preserve">
<g>
	<circle id="path-1" fill="#FFFFFF" cx="20.07" cy="20.07" r="17.562"/>
</g>
<title>m2</title>
<desc>Created with Sketch.</desc>
<g id="Page-1">
	<g id="切图用" transform="translate(-166.000000, -299.000000)">
		<g id="m2" transform="translate(166.000000, 299.000000)">
			<path id="Shape" fill="#58B6FF" d="M20.054,51.586c0,0-20.05-15.585-20.05-31.723c0-10.969,8.977-19.862,20.05-19.862
				c11.073,0,20.05,8.893,20.05,19.862C40.104,36.001,20.054,51.586,20.054,51.586z M27.766,19.721c0-4.192-3.452-7.591-7.711-7.591
				c-4.259,0-7.711,3.399-7.711,7.591c0,4.191,3.453,7.59,7.711,7.59C24.313,27.311,27.766,23.912,27.766,19.721z"/>
			<g id="f675563dfcdedf1fe1271c4e989b549a9761e075e2b8-tpZJHt_fw658" transform="translate(2.508772, 2.508772)">
				<g id="Mask">
					<circle id="path-1_1_" fill="#58B6FF" cx="17.562" cy="17.562" r="17.562"/>
				</g>
			</g>
		</g>
	</g>
</g>
</svg>
